# Blender 5.0.1
# www.blender.org
mtllib ManecillaHora.mtl
g horaG_Malla
v 0.031070 0.483626 1.151441
v 0.111374 0.677165 1.151441
v -0.004308 0.653876 1.151440
v -0.112472 0.632101 1.151440
v -0.030347 0.471261 1.151441
v 0.053635 1.469241 1.151440
v 0.020433 1.821376 1.151439
v -0.033469 1.810525 1.151440
v -0.062986 1.445763 1.151440
v -0.001133 1.458216 1.151440
v 0.005034 2.229477 1.151440
v -0.022293 2.223978 1.151439
v 0.005995 2.430312 1.151441
v -0.025314 2.424008 1.151440
v 0.078412 0.862945 1.151440
v 0.138210 0.874984 1.151439
v 0.085701 1.246346 1.151441
v 0.033765 1.235890 1.151440
v 0.069607 0.982474 1.151440
v -0.092697 1.210429 1.151439
v -0.039017 1.221237 1.151439
v -0.141284 0.818715 1.151439
v -0.090569 0.828925 1.151439
v -0.073746 0.715575 1.151440
v 0.062222 0.719060 1.151441
v 0.067738 0.004053 1.151441
v 0.040410 0.207640 1.151441
v -0.036834 0.192089 1.151440
v -0.062015 -0.022069 1.151440
v 0.023000 2.466138 1.151441
v -0.042651 2.452921 1.151440
v 0.036412 2.547144 1.151441
v -0.056867 2.528363 1.151440
v 0.021680 2.622531 1.151441
v -0.042940 2.609521 1.151440
v -0.010788 2.646874 1.151440
v 0.031070 0.483626 1.053015
v 0.111374 0.677165 1.053015
v -0.004308 0.653876 1.053015
v -0.112472 0.632101 1.053015
v -0.030347 0.471261 1.053015
v 0.053635 1.469241 1.053015
v 0.020431 1.821376 1.053014
v -0.033470 1.810525 1.053015
v -0.062986 1.445763 1.053015
v -0.001133 1.458216 1.053015
v 0.005039 2.229478 1.053015
v -0.022289 2.223978 1.053014
v 0.005996 2.430312 1.053015
v -0.025314 2.424008 1.053015
v 0.078411 0.862945 1.053015
v 0.138209 0.874984 1.053014
v 0.085701 1.246346 1.053015
v 0.033765 1.235890 1.053015
v 0.069607 0.982474 1.053015
v -0.092698 1.210430 1.053014
v -0.039017 1.221238 1.053014
v -0.141284 0.818715 1.053014
v -0.090568 0.828925 1.053014
v -0.073745 0.715574 1.053015
v 0.062222 0.719060 1.053015
v 0.067738 0.004053 1.053015
v 0.040410 0.207640 1.053015
v -0.036833 0.192089 1.053015
v -0.062014 -0.022069 1.053015
v 0.023000 2.466138 1.053015
v -0.042650 2.452921 1.053015
v 0.036412 2.547144 1.053015
v -0.056867 2.528363 1.053015
v 0.021681 2.622531 1.053015
v -0.042940 2.609521 1.053015
v -0.010788 2.646874 1.053015
vn -0.0000 -0.0000 1.0000
vn -0.0000 -0.0000 -1.0000
vn 0.9839 -0.1788 -0.0000
vn 0.9653 -0.2610 -0.0000
vn -0.9749 -0.2225 -0.0000
vn -0.9515 -0.3076 -0.0000
vn -0.9749 -0.2226 -0.0000
vn 0.9978 0.0658 -0.0000
vn 0.9930 0.1182 -0.0000
vn -0.9947 0.1030 -0.0000
vn -0.9985 0.0539 -0.0000
vn 0.9999 0.0165 -0.0000
vn -1.0000 0.0060 -0.0000
vn 0.9750 -0.2221 -0.0000
vn -0.9617 -0.2741 -0.0000
vn 1.0000 0.0028 -0.0000
vn 0.9900 0.1412 -0.0000
vn -0.9943 -0.1068 -0.0000
vn -0.9891 -0.1476 -0.0000
vn -0.9998 0.0193 -0.0000
vn -0.9879 -0.1551 -0.0000
vn -0.9923 0.1242 -0.0000
vn 0.9896 -0.1441 -0.0000
vn 0.9875 -0.1579 -0.0000
vn -0.9999 -0.0149 -0.0000
vn 1.0000 0.0083 -0.0000
vn 0.6642 0.7475 -0.0000
vn 0.8796 0.4758 -0.0000
vn -0.8988 0.4384 -0.0000
vn -0.6998 0.7143 -0.0000
vn 0.9965 0.0835 -0.0000
vn 0.9911 0.1330 -0.0000
vn -0.9975 0.0701 -0.0000
vn -0.9932 0.1168 -0.0000
vn 0.1974 -0.9803 -0.0000
vn 0.9543 -0.2990 -0.0000
vn -0.9348 -0.3553 -0.0000
vn 0.9999 0.0144 -0.0000
vn -1.0000 -0.0082 -0.0000
vn 0.8471 0.5314 -0.0000
vn -0.9046 0.4262 -0.0000
vn -1.0000 -0.0081 -0.0000
vn 0.5999 0.8001 -0.0000
vn -0.7579 0.6524 -0.0000
vt 0.800721 0.449823
vt 0.800119 0.448774
vt 0.799557 0.447792
vt 0.800174 0.448869
vt 0.800382 0.449232
vt 0.800382 0.449232
vt 0.799907 0.448403
vt 0.799768 0.448161
vt 0.799812 0.448237
vt 0.800428 0.449312
vt 0.800472 0.449389
vt 0.800721 0.449823
vt 0.800721 0.449823
vt 0.800721 0.449823
vt 0.800139 0.448808
s 0
g off
g horaG_Material_#3
usemtl Material_#3
f 2/1/1 3/2/1 5/3/1
f 9/3/1 10/4/1 7/1/1
f 7/1/1 12/3/1 8/3/1
f 11/1/1 14/3/1 12/3/1
f 18/5/1 19/6/1 16/1/1
f 17/1/1 10/4/1 18/5/1
f 9/3/1 21/7/1 10/4/1
f 20/3/1 23/8/1 21/7/1
f 4/3/1 3/2/1 24/9/1
f 25/10/1 16/1/1 15/11/1
f 25/10/1 3/2/1 2/1/1
f 22/3/1 24/9/1 23/8/1
f 26/1/1 28/3/1 29/3/1
f 27/12/1 5/3/1 28/3/1
f 13/1/1 31/3/1 14/3/1
f 30/13/1 33/3/1 31/3/1
f 32/13/1 35/3/1 33/3/1
f 34/14/1 36/15/1 35/3/1
f 41/3/2 39/2/2 38/1/2
f 43/1/2 46/4/2 45/3/2
f 48/3/2 43/1/2 44/3/2
f 50/3/2 47/1/2 48/3/2
f 52/1/2 55/6/2 54/5/2
f 53/1/2 46/4/2 42/1/2
f 57/7/2 45/3/2 46/4/2
f 59/8/2 56/3/2 57/7/2
f 60/9/2 39/2/2 40/3/2
f 52/1/2 61/10/2 51/11/2
f 38/1/2 39/2/2 61/10/2
f 58/3/2 60/9/2 40/3/2
f 64/3/2 62/1/2 65/3/2
f 41/3/2 63/12/2 64/3/2
f 67/3/2 49/1/2 50/3/2
f 69/3/2 66/13/2 67/3/2
f 71/3/2 68/13/2 69/3/2
f 71/3/2 72/15/2 70/14/2
s 37
f 1/1/3 38/1/4 2/1/4
s 38
f 5/3/5 40/3/6 41/3/7
s 37
f 7/1/8 42/1/9 43/1/8
s 38
f 9/3/10 44/3/11 45/3/10
s 37
f 7/1/8 47/1/12 11/1/12
s 38
f 12/3/13 44/3/11 8/3/11
s 37
f 13/1/14 47/1/12 49/1/14
s 38
f 12/3/13 50/3/15 48/3/13
s 37
f 16/1/16 53/1/17 17/1/17
s 39
f 19/6/18 54/5/19 55/6/18
f 19/6/18 51/11/20 15/11/20
s 37
f 6/1/9 53/1/17 42/1/9
s 39
f 10/4/21 54/5/19 18/5/19
s 38
f 20/3/22 45/3/10 56/3/22
s 40
f 21/7/23 46/4/24 10/4/24
s 38
f 22/3/25 56/3/22 58/3/25
s 40
f 23/8/26 57/7/23 21/7/23
f 3/2/27 60/9/28 24/9/28
s 37
f 16/1/16 38/1/4 52/1/16
s 39
f 15/11/20 61/10/29 25/10/29
f 3/2/30 61/10/29 39/2/30
s 38
f 22/3/25 40/3/6 4/3/6
s 40
f 23/8/26 60/9/28 59/8/26
s 37
f 27/12/31 62/1/32 63/12/31
s 38
f 28/3/33 65/3/34 29/3/34
s 41
f 29/3/35 62/1/35 26/1/35
s 37
f 27/12/31 37/1/3 1/1/3
s 38
f 28/3/33 41/3/7 64/3/33
s 37
f 30/13/36 49/1/14 66/13/36
s 38
f 31/3/37 50/3/15 14/3/15
s 37
f 30/13/36 68/13/38 32/13/38
s 38
f 33/3/39 67/3/37 31/3/37
s 37
f 34/14/40 68/13/38 70/14/40
s 38
f 35/3/41 69/3/42 33/3/39
s 37
f 36/15/43 70/14/40 72/15/43
s 38
f 36/15/44 71/3/41 35/3/41
s 0
f 5/3/1 1/1/1 2/1/1
f 3/2/1 4/3/1 5/3/1
f 7/1/1 8/3/1 9/3/1
f 10/4/1 6/1/1 7/1/1
f 7/1/1 11/1/1 12/3/1
f 11/1/1 13/1/1 14/3/1
f 16/1/1 17/1/1 18/5/1
f 19/6/1 15/11/1 16/1/1
f 17/1/1 6/1/1 10/4/1
f 9/3/1 20/3/1 21/7/1
f 20/3/1 22/3/1 23/8/1
f 25/10/1 2/1/1 16/1/1
f 22/3/1 4/3/1 24/9/1
f 26/1/1 27/12/1 28/3/1
f 27/12/1 1/1/1 5/3/1
f 13/1/1 30/13/1 31/3/1
f 30/13/1 32/13/1 33/3/1
f 32/13/1 34/14/1 35/3/1
f 38/1/2 37/1/2 41/3/2
f 41/3/2 40/3/2 39/2/2
f 45/3/2 44/3/2 43/1/2
f 43/1/2 42/1/2 46/4/2
f 48/3/2 47/1/2 43/1/2
f 50/3/2 49/1/2 47/1/2
f 54/5/2 53/1/2 52/1/2
f 52/1/2 51/11/2 55/6/2
f 53/1/2 54/5/2 46/4/2
f 57/7/2 56/3/2 45/3/2
f 59/8/2 58/3/2 56/3/2
f 52/1/2 38/1/2 61/10/2
f 58/3/2 59/8/2 60/9/2
f 64/3/2 63/12/2 62/1/2
f 41/3/2 37/1/2 63/12/2
f 67/3/2 66/13/2 49/1/2
f 69/3/2 68/13/2 66/13/2
f 71/3/2 70/14/2 68/13/2
s 37
f 1/1/3 37/1/3 38/1/4
s 38
f 5/3/5 4/3/6 40/3/6
s 37
f 7/1/8 6/1/9 42/1/9
s 38
f 9/3/10 8/3/11 44/3/11
s 37
f 7/1/8 43/1/8 47/1/12
s 38
f 12/3/13 48/3/13 44/3/11
s 37
f 13/1/14 11/1/12 47/1/12
s 38
f 12/3/13 14/3/15 50/3/15
s 37
f 16/1/16 52/1/16 53/1/17
s 39
f 19/6/18 18/5/19 54/5/19
f 19/6/18 55/6/18 51/11/20
s 37
f 6/1/9 17/1/17 53/1/17
s 39
f 10/4/21 46/4/21 54/5/19
s 38
f 20/3/22 9/3/10 45/3/10
s 40
f 21/7/23 57/7/23 46/4/24
s 38
f 22/3/25 20/3/22 56/3/22
s 40
f 23/8/26 59/8/26 57/7/23
f 3/2/27 39/2/27 60/9/28
s 37
f 16/1/16 2/1/4 38/1/4
s 39
f 15/11/20 51/11/20 61/10/29
f 3/2/30 25/10/29 61/10/29
s 38
f 22/3/25 58/3/25 40/3/6
s 40
f 23/8/26 24/9/28 60/9/28
s 37
f 27/12/31 26/1/32 62/1/32
s 38
f 28/3/33 64/3/33 65/3/34
s 41
f 29/3/35 65/3/35 62/1/35
s 37
f 27/12/31 63/12/31 37/1/3
s 38
f 28/3/33 5/3/5 41/3/7
s 37
f 30/13/36 13/1/14 49/1/14
s 38
f 31/3/37 67/3/37 50/3/15
s 37
f 30/13/36 66/13/36 68/13/38
s 38
f 33/3/39 69/3/42 67/3/37
s 37
f 34/14/40 32/13/38 68/13/38
s 38
f 35/3/41 71/3/41 69/3/42
s 37
f 36/15/43 34/14/40 70/14/40
s 38
f 36/15/44 72/15/44 71/3/41
